<?xml version="1.0" encoding="UTF-8"?>
<svg version="1.1" xmlns="http://www.w3.org/2000/svg" width="1254" height="1254" viewBox="0 0 1254 1254">
<path d="M0 0 C12.87135344 8.87566611 23.50100824 20.79457652 29.1875 35.5 C30.52373413 35.47643433 30.52373413 35.47643433 31.88696289 35.45239258 C35.26983745 35.40051673 38.65227483 35.3632948 42.03540039 35.33520508 C43.48501354 35.32034299 44.93458365 35.30004733 46.3840332 35.27368164 C60.13959371 35.03017814 72.74385842 36.94613578 85.8125 41.5 C86.56144531 41.7475 87.31039063 41.995 88.08203125 42.25 C92.12747432 43.62473463 95.54564932 45.23710249 99.1875 47.5 C100.87553631 48.22257669 102.56409008 48.94406988 104.25878906 49.65087891 C119.7642366 56.47720125 133.96947914 66.35056961 148.13183594 75.52636719 C171.29895323 90.48985202 192.82244993 103.06080795 220.6875 106.4375 C225.96890295 107.14800264 229.24810688 107.88888964 233.1875 111.5 C235.70000583 115.26875875 235.71766086 117.03150134 235.1875 121.5 C233.03440597 125.27434809 230.24083285 127.93333352 226.1875 129.5 C223.28816417 130.08424613 220.36690949 130.47345556 217.4375 130.875 C198.00466812 133.77508842 186.32784655 137.16959569 173.1875 152.5 C164.33183152 162.83161322 154.94235644 172.13843567 144.1875 180.5 C142.75083984 181.62728516 142.75083984 181.62728516 141.28515625 182.77734375 C124.78071954 195.46472283 106.82248151 204.7761154 87.1875 211.5 C86.08792969 211.88027344 84.98835938 212.26054687 83.85546875 212.65234375 C68.0494033 217.8170877 54.19965496 218.5 37.1875 218.5 C37.1875 248.2 37.1875 277.9 37.1875 308.5 C44.1175 306.52 44.1175 306.52 51.1875 304.5 C70.52328238 300.40536373 88.20500268 297.27016187 106.0703125 308.03515625 C116.34360017 315.14305823 122.46246866 324.36516933 128.625 335 C128.97957275 335.61182129 129.33414551 336.22364258 129.69946289 336.85400391 C132.1875 341.2523548 132.1875 341.2523548 132.1875 343.5 C137.16493404 339.91456022 142.13273388 336.32729859 146.98828125 332.578125 C166.80487344 317.32709634 185.63795598 307.51546852 211.1875 309.5 C222.25558065 311.29543813 231.8110285 316.7497766 238.6875 325.6875 C239.55101696 326.93801999 240.38414926 328.21000411 241.1875 329.5 C241.69925781 330.29792969 242.21101562 331.09585937 242.73828125 331.91796875 C246.9005209 339.33371109 247.46398454 347.53783943 247.5 355.875 C247.50539795 356.61637207 247.5107959 357.35774414 247.51635742 358.12158203 C247.35731846 371.01895047 244.42847197 383.12752261 240.6875 395.375 C240.24162289 396.86273793 239.79648866 398.35069868 239.35205078 399.83886719 C236.15345232 410.5051457 232.79770625 421.12128544 229.43295288 431.73602295 C225.9716892 442.6801674 222.90695664 453.68607769 220.01074219 464.79418945 C218.07379181 472.21900301 216.01759425 479.58825608 213.8125 486.9375 C210.36896733 498.47042639 207.42449206 510.1217709 204.46591187 521.78594971 C201.93094887 531.77571995 199.35441894 541.73487713 196.44506836 551.62353516 C194.2475814 559.14396033 192.26628619 566.71894272 190.28094482 574.29736328 C187.23935966 585.90687771 184.11299321 597.46766432 180.57421875 608.9375 C179.32454651 612.99695607 178.17968559 617.08076377 177.04663086 621.17407227 C166.30539045 659.77752592 150.85886398 695.29142769 124.1875 725.5 C123.1046875 726.76650391 123.1046875 726.76650391 122 728.05859375 C117.72339652 733.01176927 113.18497552 737.28985478 108.1875 741.5 C107.21425781 742.36109375 106.24101563 743.2221875 105.23828125 744.109375 C97.79606925 750.67022866 90.04765422 756.65105044 82.02636719 762.48730469 C75.88868636 766.95808395 69.97156376 771.57598493 64.1875 776.5 C63.39859375 777.12003906 62.6096875 777.74007812 61.796875 778.37890625 C55.05697772 783.93388611 50.27787287 790.49240082 45.36010742 797.67333984 C41.21260964 803.59902532 36.72327364 808.23211318 30.1875 811.5 C24.74268893 812.11374682 20.57161467 812.52424485 16.0625 809.1875 C13.06208797 804.88690942 12.77747362 801.66633238 13.1875 796.5 C17.09202913 781.27514542 28.4135545 768.37972056 39.1875 757.5 C39.82816406 756.79875 40.46882813 756.0975 41.12890625 755.375 C46.74773886 749.34135424 53.44516839 744.60680438 60.0078125 739.6640625 C65.19271512 735.75622949 70.21748172 731.67708089 75.1875 727.5 C75.7350293 727.04270508 76.28255859 726.58541016 76.84667969 726.11425781 C88.82894135 716.08828377 99.44340366 705.67303932 108.88671875 693.20214844 C110.07961026 691.64118005 111.30398058 690.10439928 112.53125 688.5703125 C128.55358255 668.20389683 138.2053959 643.31031317 146.0625 618.875 C146.27715912 618.20902802 146.49181824 617.54305603 146.71298218 616.85690308 C152.80638089 597.87655564 157.77008956 578.66678421 161.59106445 559.09790039 C161.7737085 558.17098389 161.95635254 557.24406738 162.14453125 556.2890625 C162.29897705 555.48162598 162.45342285 554.67418945 162.61254883 553.84228516 C163.24275903 551.27488107 164.15501197 548.93062082 165.1875 546.5 C164.47464844 546.83773437 163.76179688 547.17546875 163.02734375 547.5234375 C150.19328035 553.5 150.19328035 553.5 143.1875 553.5 C143.06375 554.77875 142.94 556.0575 142.8125 557.375 C140.53586726 576.92368645 133.02990008 595.17519542 117.79980469 608.27050781 C109.59376401 614.52817299 100.67140399 617.6882474 90.4375 617.5625 C89.74011719 617.55798828 89.04273438 617.55347656 88.32421875 617.54882812 C86.61194197 617.5371002 84.89970967 617.51916653 83.1875 617.5 C82.62095703 618.68142578 82.62095703 618.68142578 82.04296875 619.88671875 C77.5024476 628.87205921 71.98280828 636.10553033 65.1875 643.5 C64.383125 644.39847656 63.57875 645.29695312 62.75 646.22265625 C56.33814789 653.04579492 49.17378087 657.75726178 41.1875 662.5 C40.39472656 662.99371094 39.60195313 663.48742187 38.78515625 663.99609375 C25.2102199 672.11072051 10.76449461 674.93947634 -4.8125 674.5 C-4.67320068 675.01812256 -4.53390137 675.53624512 -4.39038086 676.07006836 C-2.54111908 683.90421371 -2.40604046 691.69795963 -2.38696289 699.70141602 C-2.37514207 702.03445937 -2.32589859 704.36478336 -2.27539062 706.69726562 C-2.05853418 726.93194801 -8.82171891 745.33739258 -22.53125 760.38671875 C-25.51626587 763.29710922 -27.76624808 764.88195128 -32 765.125 C-35.8125 764.5 -35.8125 764.5 -38.3125 762.9375 C-40.37109771 759.59227872 -40.06086818 757.40178395 -39.8125 753.5 C-38.7890625 749.88671875 -38.7890625 749.88671875 -37.4375 746.1875 C-33.32719115 734.87814144 -32.40212151 724.20481873 -32.4375 712.25 C-32.43931274 711.11369644 -32.43931274 711.11369644 -32.44116211 709.95443726 C-32.49158286 698.26374052 -33.43857668 687.2988252 -36.05859375 675.87939453 C-37.00478855 671.63806409 -37.86298049 667.38144638 -38.71875 663.12109375 C-41.92485708 647.21064542 -45.24641916 631.333968 -48.8125 615.5 C-56.0600767 616.50784136 -62.93140996 618.05457181 -69.9375 620.125 C-82.8186826 623.84281042 -82.8186826 623.84281042 -88.8125 622.5 C-92.20738422 620.44892412 -93.61573081 618.79515379 -95.8125 615.5 C-96.18359375 613.23046875 -96.18359375 613.23046875 -96.25 610.6875 C-96.28996094 609.85605469 -96.32992187 609.02460937 -96.37109375 608.16796875 C-95.5595235 604.29172761 -93.81913774 601.9501731 -90.8125 599.5 C-87.19602805 597.52129256 -83.41258365 596.08545535 -79.5625 594.625 C-78.41531494 594.17374756 -77.26812988 593.72249512 -76.08618164 593.25756836 C-73.48794899 592.23575663 -70.88551845 591.22567164 -68.27978516 590.22314453 C-63.26571779 588.29296233 -58.26388429 586.33187089 -53.26171875 584.37109375 C-45.30174616 581.25316346 -37.33688751 578.14807952 -29.36654663 575.05674744 C-24.43528107 573.14137688 -19.52099346 571.19043025 -14.6340332 569.1640625 C-11.78305951 568.12470471 -9.78913178 567.8911435 -6.8125 568.5 C-2.99653007 570.68990359 -1.30712084 572.16343943 0.234375 576.32885742 C1.13213024 579.82850709 1.87351608 583.32842702 2.5625 586.875 C2.82160156 588.0815625 3.08070313 589.288125 3.34765625 590.53125 C6.26196792 604.56312101 6.26196792 604.56312101 4.25 610.0625 C0.61455719 614.35893241 -4.26236856 617.03844508 -9.109375 619.81640625 C-13.2451136 622.21654978 -13.2451136 622.21654978 -16.375 625.75 C-17.24797202 631.23725271 -16.64900897 636.39034631 -14.125 641.375 C-10.86189147 645.78460612 -8.51678765 647.08365643 -3.09765625 647.91796875 C12.58354207 648.94529077 27.82554771 639.21178259 39.22216797 629.23852539 C50.26458405 619.25383006 58.60266389 607.55567979 59.75 592.3125 C59.83378906 591.22582031 59.91757812 590.13914062 60.00390625 589.01953125 C60.06449219 588.18808594 60.12507813 587.35664062 60.1875 586.5 C59.5275 586.5 58.8675 586.5 58.1875 586.5 C58.02096924 585.41162842 57.85443848 584.32325684 57.68286133 583.2019043 C56.0576736 572.86863084 54.0031705 562.7272411 51.44555664 552.58520508 C50.87318136 550.3052558 50.31995531 548.02119428 49.76757812 545.73632812 C47.35118621 535.94723003 44.25983941 526.73512709 40.1875 517.5 C39.88158936 516.74436768 39.57567871 515.98873535 39.26049805 515.21020508 C36.65883881 511.06353318 29.72820379 509.55835525 25.1875 508.5 C20.83537309 508.09475735 16.51215187 508.11294087 12.14379883 508.14697266 C10.18039228 508.14365691 8.21698574 508.14033657 6.2535795 508.13684249 C4.16015638 508.13587815 2.06686511 508.14216756 -0.02654076 508.15044022 C-4.40184032 508.16689504 -8.77687669 508.15829299 -13.1521759 508.14559937 C-24.80104755 508.11557578 -36.44986923 508.11696248 -48.09875995 508.13585222 C-55.76650243 508.14819151 -63.43394414 508.14631566 -71.10165197 508.11746442 C-75.44814502 508.10225614 -79.79381934 508.10967182 -84.14026105 508.13417459 C-87.4792812 508.14662727 -90.81797502 508.12666453 -94.15698242 508.11181641 C-95.35556885 508.12515518 -96.55415527 508.13849396 -97.7890625 508.15223694 C-106.84596255 508.06254506 -106.84596255 508.06254506 -110.54096985 505.14926147 C-113.71869569 501.44311359 -114.21762529 498.3563594 -114.1640625 493.5 C-113.55934456 490.05982681 -111.47958771 488.56093141 -108.8125 486.5 C-105.78203824 484.70909457 -103.41151253 484.20143184 -99.90917969 484.01342773 C-98.44127235 483.92835716 -98.44127235 483.92835716 -96.94371033 483.84156799 C-95.88462967 483.78943649 -94.82554901 483.73730499 -93.734375 483.68359375 C-92.62699478 483.6224791 -91.51961456 483.56136444 -90.37867737 483.49839783 C-86.77370659 483.30231708 -83.16820477 483.1195416 -79.5625 482.9375 C-77.09397338 482.80654314 -74.6254675 482.67519466 -72.15698242 482.54345703 C-57.5827967 481.77868249 -43.00989663 481.12238401 -28.41894531 480.79077148 C-23.42344453 480.67452264 -18.48673629 480.50684875 -13.515625 479.98828125 C-6.10807317 479.25687038 1.31421204 479.30241322 8.75 479.3125 C9.87627304 479.31290787 9.87627304 479.31290787 11.02529907 479.31332397 C46.3220619 479.37216211 46.3220619 479.37216211 60.1875 490.5 C70.49217675 500.89772124 73.02050041 516.68296647 76.40380859 530.34326172 C77.20143864 533.55614536 78.01493514 536.76467218 78.83203125 539.97265625 C79.36770306 542.08580688 79.9028739 544.19908457 80.4375 546.3125 C80.68363037 547.28348633 80.92976074 548.25447266 81.18334961 549.25488281 C82.69748234 555.30723248 84.01061003 561.37375036 85.1875 567.5 C85.51973374 569.16688621 85.85294348 570.83357844 86.1875 572.5 C86.34992188 573.31726563 86.51234375 574.13453125 86.6796875 574.9765625 C87.03113152 576.72296894 87.39107501 578.46767849 87.7578125 580.2109375 C87.94085937 581.09007812 88.12390625 581.96921875 88.3125 582.875 C88.48007812 583.66648437 88.64765625 584.45796875 88.8203125 585.2734375 C89.1875 587.5 89.1875 587.5 89.1875 591.5 C96.01893982 590.60153399 100.82136044 588.98665325 105.1875 583.5 C110.43205396 575.30777702 114.54615997 567.35207455 115.1875 557.5 C115.27902344 556.46617187 115.37054687 555.43234375 115.46484375 554.3671875 C116.68856919 527.68400347 105.7985971 499.63293973 98 474.4375 C97.7898526 473.75436737 97.5797052 473.07123474 97.3631897 472.36740112 C95.25316005 465.53347382 93.11161505 458.79818464 90.01538086 452.33422852 C89.15163715 450.42054332 88.53444918 448.51111919 87.9375 446.5 C85.47554884 439.84607795 80.25492463 434.26961969 74 431 C67.83876622 428.19826001 61.55337571 428.31372212 54.91796875 428.32421875 C53.87263474 428.32564377 52.82730072 428.32706879 51.75028992 428.32853699 C38.03932702 428.42852697 24.36439439 429.31067773 10.6850853 430.17513657 C8.47325872 430.31418107 6.26127799 430.45045637 4.04922485 430.58584595 C-13.35184893 431.65142158 -30.74847119 432.76994168 -48.125 434.1875 C-48.86777191 434.24789459 -49.61054382 434.30828918 -50.37582397 434.37051392 C-56.57327592 434.88093772 -62.68194588 435.44903241 -68.8125 436.5 C-74.51031116 436.94554313 -79.18121142 437.28923611 -83.8125 433.5 C-87.02427039 430.74705395 -87.68197882 428.46958591 -88.25 424.25 C-87.74814793 419.94841086 -86.63836235 418.26040412 -84.00390625 414.98046875 C-78.44993407 411.22831999 -70.40400547 411.03502357 -63.875 410.125 C-63.00093506 410.0019751 -62.12687012 409.8789502 -61.22631836 409.75219727 C-35.25636521 406.17794692 -9.08962546 402.90959168 17.11499023 401.84106445 C20.00122492 401.71655017 22.79716296 401.57911184 25.6328125 401.00439453 C28.10228937 400.51682389 30.42171693 400.29907359 32.93359375 400.18359375 C33.84254395 400.14137695 34.75149414 400.09916016 35.68798828 400.05566406 C40.85398516 399.84782179 46.01963602 399.65563451 51.1875 399.5 C52.18313965 399.46986816 53.1787793 399.43973633 54.20458984 399.40869141 C73.44279339 398.9057109 88.4077145 400.44653928 102.91015625 414.14453125 C125.27650586 437.27816558 131.06624193 481.33930205 138.68920898 511.54516602 C139.03705956 512.90981058 139.39408063 514.27213598 139.75805664 515.63256836 C140.66313211 519.07376142 141.1875 521.91452361 141.1875 525.5 C146.50786881 523.7028928 146.50786881 523.7028928 150.26171875 519.671875 C150.79410156 518.54265625 151.32648438 517.4134375 151.875 516.25 C152.30643311 515.3364978 152.30643311 515.3364978 152.74658203 514.40454102 C155.78604413 507.68433313 157.59451228 500.68557365 159.1875 493.5 C159.38214844 492.72140625 159.57679688 491.9428125 159.77734375 491.140625 C164.16660479 462.8821444 149.46877052 439.73277661 137.24133301 415.41204834 C136.00639092 412.95295714 134.775918 410.49164242 133.54546452 408.030303 C126.89931113 394.7385702 120.17771766 381.4924769 113.18737793 368.37783813 C112.28665538 366.68622049 111.39243403 364.99114505 110.49902344 363.2956543 C109.17908561 360.79395824 107.84302405 358.30185324 106.5 355.8125 C106.07912109 355.01134766 105.65824219 354.21019531 105.22460938 353.38476562 C100.61128826 344.87266786 94.98067359 336.97429053 85.37890625 333.92578125 C72.0793783 331.3417375 58.98831457 335.20003862 46.1875 338.5 C45.46997559 338.68111328 44.75245117 338.86222656 44.01318359 339.04882812 C36.5653264 340.93155783 29.20934966 343.08378019 21.85375977 345.29516602 C14.47381372 347.47764759 7.02571835 349.39911298 -0.41915894 351.34466553 C-15.07844615 355.14843691 -15.07844615 355.14843691 -29.5625 359.5625 C-36.76763052 361.93247186 -44.03393261 363.90739105 -51.375 365.8125 C-67.026787 369.89807675 -82.54196303 374.44506919 -98.0625 379 C-99.89967087 379.53821884 -99.89967087 379.53821884 -101.7739563 380.08731079 C-108.94901028 382.19093029 -116.11872536 384.31165017 -123.28344727 386.45019531 C-125.65564884 387.15586579 -128.02921407 387.85696675 -130.40405273 388.55371094 C-133.89235906 389.57742449 -137.37615416 390.61538299 -140.859375 391.65625 C-141.88798645 391.95470825 -142.9165979 392.2531665 -143.97637939 392.56066895 C-162.8766217 398.26854444 -177.04167592 408.42736986 -186.5 425.9375 C-213.1583301 480.37237874 -206.76902878 561.43232639 -211.234375 621.36328125 C-211.29122971 622.12628918 -211.34808441 622.8892971 -211.40666199 623.67542648 C-211.9503746 630.98164065 -212.48955086 638.28816223 -213.01718235 645.59555626 C-216.52833339 694.20252553 -220.35825515 742.72725242 -259.75 777.0625 C-263.79940014 780.28549195 -265.64036061 780.99732109 -270.8125 780.5 C-276.39144737 777.34210526 -276.39144737 777.34210526 -277.8125 774.5 C-278.74337281 767.54647046 -277.09655158 763.17388326 -273.4375 757.375 C-267.2072895 746.84164446 -262.40656497 735.82831205 -257.8125 724.5 C-257.49764648 723.72769043 -257.18279297 722.95538086 -256.85839844 722.15966797 C-247.32984448 698.35976797 -246.08789271 672.57934525 -244.29568481 647.27975464 C-230.15813977 448.43456371 -230.15813977 448.43456371 -216.8125 419.5 C-216.28785156 418.34371094 -215.76320313 417.18742187 -215.22265625 415.99609375 C-211.56237027 408.18558713 -207.19027968 401.23829366 -201.8125 394.5 C-200.96558594 393.42298828 -200.96558594 393.42298828 -200.1015625 392.32421875 C-184.08740735 372.9643833 -160.17919608 365.0426749 -136.8125 358.5 C-136.1525 358.5 -135.4925 358.5 -134.8125 358.5 C-134.72613281 357.571875 -134.63976562 356.64375 -134.55078125 355.6875 C-133.39236222 344.04234025 -131.61521877 332.50948242 -129.77294922 320.95727539 C-128.34061041 311.96227931 -127.00534756 302.95928961 -125.75 293.9375 C-124.45848922 284.69201514 -122.97705714 275.50512136 -121.31665039 266.31933594 C-119.67820403 257.08987815 -118.42444553 247.81307553 -117.20703125 238.51977539 C-116.31458278 231.78469555 -115.25839818 225.13954166 -113.8125 218.5 C-114.5653125 218.53480469 -115.318125 218.56960938 -116.09375 218.60546875 C-136.065019 219.11444527 -154.93440721 212.92134101 -172.8125 204.5 C-173.88628906 204.00757813 -174.96007812 203.51515625 -176.06640625 203.0078125 C-197.1319196 192.99031014 -215.18795739 177.65115474 -231.8125 161.5 C-232.72140991 160.61852295 -232.72140991 160.61852295 -233.64868164 159.71923828 C-237.15169302 156.27496284 -240.34252869 152.75075523 -243.375 148.875 C-252.27590517 137.92119246 -261.63933731 134.4683888 -275.4375 132.375 C-294.58720639 129.34212765 -294.58720639 129.34212765 -299.8125 125.5 C-301.78371981 122.54317029 -302.19365169 121.57461847 -302.375 118.1875 C-302.43816406 117.44886719 -302.50132812 116.71023438 -302.56640625 115.94921875 C-301.28550583 111.78795159 -298.53407624 109.62026057 -294.8125 107.5 C-290.94012508 106.40482305 -287.05671371 105.99162287 -283.0625 105.5625 C-256.95169835 102.03807434 -236.27817867 89.35176067 -214.50537109 75.24462891 C-152.42032874 35.02162685 -152.42032874 35.02162685 -115.625 35.1875 C-114.44059326 35.18878906 -113.25618652 35.19007813 -112.03588867 35.19140625 C-103.30069055 35.28706238 -95.22854136 36.13166675 -86.8125 38.5 C-86.77511719 37.89414062 -86.73773437 37.28828125 -86.69921875 36.6640625 C-85.63249101 23.06851293 -81.07691258 10.60899172 -70.8515625 1.20703125 C-50.32218026 -15.97944392 -21.66058388 -13.56947083 0 0 Z" fill="#11B82A" transform="translate(658.8125,291.5)"/>
</svg>
